# xmcd
#
# Track frame offsets: 
#        183
#        10205
#        20823
#        31268
#        40755
#        50925
#        61165
#        71173
#        81623
#        91280
#        101705
#        112548
#        123003
#        132478
#        144955
#        154553
#        166755
#        177735
#        188943
#        201150
#        215073
#        228168
#        241828
#        253085
#        262180
#        271863
#        281003
#        295378
#        306188
#
# Disc length: 4238 seconds
#
# Revision: 0
# Processed by: cddbd v1.4b42PL0 Copyright (c) Steve Scherf et al.
# Submitted via: ExactAudioCopy v0.90a11
#
DISCID=ad108c1d
DTITLE=R and C Stanley 1958-61 - The Stanley Brothers The Early Years 19
DTITLE=58-1961 Vol. 1
DYEAR=1900
DGENRE=
TTITLE0=Holiday Pickin'
TTITLE1=Gonna Paint The Town
TTITLE2=That Happy Night
TTITLE3=Christmas Is Near
TTITLE4=Love Me, Darling, Just Tonight
TTITLE5=She's More To Be Pitied
TTITLE6=Heaven Seemed So Neer
TTITLE7=Your Selfish Heart
TTITLE8=How Mountain Girls Can Love
TTITLE9=The Memory Of Your Smile
TTITLE10=Mastertone March
TTITLE11=Clinch Mountain Backstep
TTITLE12=Midnight Ramble
TTITLE13=Train 45
TTITLE14=Think Of What You've Done
TTITLE15=Keep A Memory
TTITLE16=Old Daniel Prayed
TTITLE17=He Said If I Be Lifted Up
TTITLE18=This Wicked Path Of Sin
TTITLE19=I'll Meet You In Church Sunday Morning
TTITLE20=Are You Afraid To Die
TTITLE21=The White Dove
TTITLE22=How Can We Thank Him For What He Has Done
TTITLE23=Mother's Footsteps Guide Me On
TTITLE24=That Home Far Away
TTITLE25=My Lord's Gonna Set Me Free
TTITLE26=The Angel Of Death
TTITLE27=Wings Of Angels
TTITLE28=Suwannee River Hoedown
EXTD=
EXTT0=
EXTT1=
EXTT2=
EXTT3=
EXTT4=
EXTT5=
EXTT6=
EXTT7=
EXTT8=
EXTT9=
EXTT10=
EXTT11=
EXTT12=
EXTT13=
EXTT14=
EXTT15=
EXTT16=
EXTT17=
EXTT18=
EXTT19=
EXTT20=
EXTT21=
EXTT22=
EXTT23=
EXTT24=
EXTT25=
EXTT26=
EXTT27=
EXTT28=
PLAYORDER=
